<svg xmlns="http://www.w3.org/2000/svg" width="800" height="500" viewBox="0 0 800 500" role="img" aria-label="City tour illustration">
  <defs>
    <linearGradient id="sky" x2="0" y2="1"><stop stop-color="#9dd6e7"/><stop offset="1" stop-color="#f7d6a7"/></linearGradient>
  </defs>
  <rect width="800" height="500" fill="url(#sky)"/>
  <circle cx="650" cy="112" r="58" fill="#fff5ce"/>
  <path d="M0 380h800v120H0z" fill="#39606b"/>
  <path d="M40 380V204h114v176zm143 0V143h88v237zm112 0V237h103v143zm130 0V100h99v280zm126 0V192h113v188zm140 0V266h72v114z" fill="#234957"/>
  <path d="M224 143l43-57 43 57m159-43 5-54 5 54" fill="none" stroke="#234957" stroke-width="16"/>
  <path d="M0 410h800" stroke="#e8c695" stroke-width="8"/>
  <text x="42" y="455" fill="#fff8ec" font-family="sans-serif" font-size="32" font-weight="700">Explore the city</text>
</svg>
